<svg width="24" height="22" viewBox="0 0 24 22" fill="none" xmlns="http://www.w3.org/2000/svg">
<mask id="path-1-inside-1_211_2339" fill="white">
<path d="M15.0112 10.7646C14.8436 10.7646 14.688 10.7185 14.5497 10.6444V10.6463C14.5497 10.91 14.4472 11.1577 14.2613 11.3431C14.0753 11.5291 13.8279 11.6316 13.5645 11.6316C13.3944 11.6316 13.2368 11.5844 13.0971 11.5083C13.083 11.7495 12.9865 11.975 12.8145 12.1472C12.6285 12.3332 12.3811 12.4357 12.1175 12.4357C11.5939 12.4357 11.1686 12.024 11.138 11.5081C10.976 11.5957 10.7928 11.6416 10.6039 11.6295C10.0887 11.5957 9.68534 11.1506 9.68534 10.616V6.18435L9.18071 7.05859C8.98851 7.39297 8.62873 7.60058 8.24136 7.60058C8.05261 7.60058 7.86615 7.55105 7.70101 7.45643C7.49537 7.33721 7.34827 7.14583 7.28709 6.91687C7.2256 6.68778 7.25741 6.44818 7.3763 6.24285C7.37647 6.24285 9.02738 3.38395 9.12809 3.20834C9.14006 3.18194 9.17418 3.10536 9.2032 3.04009C9.23092 2.97777 9.2547 2.91381 9.27749 2.84953C9.77535 1.44397 11.0081 0.570866 12.4949 0.570866C14.4255 0.570866 15.9963 2.27408 15.9963 4.36764L15.9964 9.77913C15.9964 10.0425 15.8941 10.29 15.7083 10.4761C15.5223 10.6621 15.2749 10.7646 15.0112 10.7646L15.0112 10.7646ZM12.4949 1.09441C11.2174 1.09441 10.1991 1.816 9.77096 3.02462C9.74358 3.10137 9.71504 3.17811 9.68175 3.2529C9.58516 3.46953 9.58516 3.46953 9.55794 3.50069L9.55433 3.49757C9.41953 3.75192 9.01906 4.44544 7.82962 6.50487C7.78075 6.58933 7.76779 6.6874 7.79272 6.7812C7.81798 6.875 7.87849 6.95405 7.96229 7.00242C8.22238 7.15182 8.57859 7.05539 8.72683 6.79711L9.72046 5.07681C9.77983 4.97431 9.89987 4.92397 10.015 4.95513C10.1295 4.98579 10.209 5.0896 10.209 5.208V10.6161C10.209 10.8713 10.4015 11.0915 10.6382 11.1071C10.7746 11.1143 10.9019 11.0686 10.9975 10.9731C11.0844 10.8862 11.1323 10.7704 11.1323 10.6466V7.10963C11.1323 6.96499 11.2495 6.84774 11.3942 6.84774C11.5388 6.84774 11.6561 6.96483 11.6561 7.10963L11.6559 11.4506C11.6559 11.7051 11.863 11.9122 12.1175 11.9122C12.2412 11.9122 12.3573 11.8643 12.4444 11.7774C12.5313 11.6903 12.5792 11.5742 12.5792 11.4506V7.10963C12.5792 6.96499 12.6963 6.84773 12.8411 6.84773C12.9857 6.84773 13.103 6.96483 13.103 7.10963L13.1028 10.6059V10.6466C13.1028 10.901 13.3099 11.1081 13.5646 11.1081C13.6881 11.1081 13.8039 11.06 13.8915 10.9728C13.9784 10.886 14.0263 10.7703 14.0263 10.6464V7.10945C14.0263 6.96481 14.1434 6.84755 14.2882 6.84755C14.4328 6.84755 14.5501 6.96464 14.5501 7.10945L14.5497 9.77925C14.5497 10.0339 14.7568 10.2411 15.0112 10.2411C15.135 10.2411 15.2508 10.193 15.3377 10.1063C15.4249 10.019 15.4727 9.9029 15.4727 9.77925L15.4728 4.36777C15.4728 2.56304 14.137 1.09446 12.4949 1.09446L12.4949 1.09441Z"/>
</mask>
<path d="M15.0112 10.7646C14.8436 10.7646 14.688 10.7185 14.5497 10.6444V10.6463C14.5497 10.91 14.4472 11.1577 14.2613 11.3431C14.0753 11.5291 13.8279 11.6316 13.5645 11.6316C13.3944 11.6316 13.2368 11.5844 13.0971 11.5083C13.083 11.7495 12.9865 11.975 12.8145 12.1472C12.6285 12.3332 12.3811 12.4357 12.1175 12.4357C11.5939 12.4357 11.1686 12.024 11.138 11.5081C10.976 11.5957 10.7928 11.6416 10.6039 11.6295C10.0887 11.5957 9.68534 11.1506 9.68534 10.616V6.18435L9.18071 7.05859C8.98851 7.39297 8.62873 7.60058 8.24136 7.60058C8.05261 7.60058 7.86615 7.55105 7.70101 7.45643C7.49537 7.33721 7.34827 7.14583 7.28709 6.91687C7.2256 6.68778 7.25741 6.44818 7.3763 6.24285C7.37647 6.24285 9.02738 3.38395 9.12809 3.20834C9.14006 3.18194 9.17418 3.10536 9.2032 3.04009C9.23092 2.97777 9.2547 2.91381 9.27749 2.84953C9.77535 1.44397 11.0081 0.570866 12.4949 0.570866C14.4255 0.570866 15.9963 2.27408 15.9963 4.36764L15.9964 9.77913C15.9964 10.0425 15.8941 10.29 15.7083 10.4761C15.5223 10.6621 15.2749 10.7646 15.0112 10.7646L15.0112 10.7646ZM12.4949 1.09441C11.2174 1.09441 10.1991 1.816 9.77096 3.02462C9.74358 3.10137 9.71504 3.17811 9.68175 3.2529C9.58516 3.46953 9.58516 3.46953 9.55794 3.50069L9.55433 3.49757C9.41953 3.75192 9.01906 4.44544 7.82962 6.50487C7.78075 6.58933 7.76779 6.6874 7.79272 6.7812C7.81798 6.875 7.87849 6.95405 7.96229 7.00242C8.22238 7.15182 8.57859 7.05539 8.72683 6.79711L9.72046 5.07681C9.77983 4.97431 9.89987 4.92397 10.015 4.95513C10.1295 4.98579 10.209 5.0896 10.209 5.208V10.6161C10.209 10.8713 10.4015 11.0915 10.6382 11.1071C10.7746 11.1143 10.9019 11.0686 10.9975 10.9731C11.0844 10.8862 11.1323 10.7704 11.1323 10.6466V7.10963C11.1323 6.96499 11.2495 6.84774 11.3942 6.84774C11.5388 6.84774 11.6561 6.96483 11.6561 7.10963L11.6559 11.4506C11.6559 11.7051 11.863 11.9122 12.1175 11.9122C12.2412 11.9122 12.3573 11.8643 12.4444 11.7774C12.5313 11.6903 12.5792 11.5742 12.5792 11.4506V7.10963C12.5792 6.96499 12.6963 6.84773 12.8411 6.84773C12.9857 6.84773 13.103 6.96483 13.103 7.10963L13.1028 10.6059V10.6466C13.1028 10.901 13.3099 11.1081 13.5646 11.1081C13.6881 11.1081 13.8039 11.06 13.8915 10.9728C13.9784 10.886 14.0263 10.7703 14.0263 10.6464V7.10945C14.0263 6.96481 14.1434 6.84755 14.2882 6.84755C14.4328 6.84755 14.5501 6.96464 14.5501 7.10945L14.5497 9.77925C14.5497 10.0339 14.7568 10.2411 15.0112 10.2411C15.135 10.2411 15.2508 10.193 15.3377 10.1063C15.4249 10.019 15.4727 9.9029 15.4727 9.77925L15.4728 4.36777C15.4728 2.56304 14.137 1.09446 12.4949 1.09446L12.4949 1.09441Z" fill="#4CAF4F"/>
<path d="M15.0112 10.7646V9.83647H18.2902L15.4976 11.555L15.0112 10.7646ZM14.5497 10.6444H13.6216V9.09362L14.9883 9.82642L14.5497 10.6444ZM14.2613 11.3431L13.605 10.6869L13.6059 10.686L14.2613 11.3431ZM13.0971 11.5083L12.1706 11.4541L12.256 9.99345L13.5409 10.6932L13.0971 11.5083ZM12.8145 12.1472L13.4711 12.8031L13.4708 12.8035L12.8145 12.1472ZM11.138 11.5081L10.6967 10.6916L11.9781 9.9991L12.0645 11.4531L11.138 11.5081ZM10.6039 11.6295L10.5444 12.5557L10.5431 12.5556L10.6039 11.6295ZM9.68534 6.18435L8.88154 5.72039L10.6134 2.71998V6.18435H9.68534ZM9.18071 7.05859L8.37607 6.59609L8.37691 6.59462L9.18071 7.05859ZM7.70101 7.45643L7.23959 8.2617L7.23553 8.25935L7.70101 7.45643ZM7.28709 6.91687L8.18346 6.67627L8.18373 6.67731L7.28709 6.91687ZM7.3763 6.24285L6.57314 5.77779L6.84125 5.31476H7.3763V6.24285ZM9.12809 3.20834L9.97335 3.5916L9.95513 3.63179L9.93318 3.67007L9.12809 3.20834ZM9.2032 3.04009L8.35519 2.66296L8.35519 2.66295L9.2032 3.04009ZM9.27749 2.84953L10.1523 3.1594L10.1522 3.15966L9.27749 2.84953ZM15.9963 4.36764L15.0682 4.36767V4.36764H15.9963ZM15.9964 9.77913L16.9245 9.7791V9.77913H15.9964ZM15.7083 10.4761L16.3652 11.1318L16.3645 11.1324L15.7083 10.4761ZM15.0112 10.7646V11.6927H11.7322L14.5248 9.97416L15.0112 10.7646ZM12.4949 1.09441V0.166316H13.7253L13.3873 1.34938L12.4949 1.09441ZM9.77096 3.02462L10.6458 3.33454L10.6451 3.33654L9.77096 3.02462ZM9.68175 3.2529L10.5296 3.63035L10.5294 3.63084L9.68175 3.2529ZM9.55794 3.50069L10.2568 4.11134L9.64969 4.80623L8.95132 4.20309L9.55794 3.50069ZM9.55433 3.49757L8.73428 3.06297L9.2796 2.03401L10.1609 2.79517L9.55433 3.49757ZM7.82962 6.50487L8.6333 6.96904L8.63292 6.96971L7.82962 6.50487ZM7.79272 6.7812L6.89654 7.02248L6.89577 7.01958L7.79272 6.7812ZM7.96229 7.00242L7.50003 7.8072L7.49829 7.8062L7.96229 7.00242ZM8.72683 6.79711L7.92188 6.33512L7.92316 6.33291L8.72683 6.79711ZM9.72046 5.07681L8.91679 4.61261L8.91736 4.61164L9.72046 5.07681ZM10.015 4.95513L9.77482 5.85161L9.77252 5.85099L10.015 4.95513ZM10.6382 11.1071L10.5892 12.034L10.5772 12.0332L10.6382 11.1071ZM10.9975 10.9731L11.6537 11.6294L11.6532 11.63L10.9975 10.9731ZM11.6561 7.10963H12.5842V7.10967L11.6561 7.10963ZM11.6559 11.4506H10.7278V11.4505L11.6559 11.4506ZM12.4444 11.7774L13.1013 12.4331L13.1 12.4343L12.4444 11.7774ZM13.103 7.10963H14.0311V7.10967L13.103 7.10963ZM13.1028 10.6059H12.1747V10.6059L13.1028 10.6059ZM13.8915 10.9728L14.5471 11.6297L14.5465 11.6303L13.8915 10.9728ZM14.5501 7.10945H15.4781V7.10956L14.5501 7.10945ZM14.5497 9.77925H13.6216V9.77914L14.5497 9.77925ZM15.3377 10.1063L15.994 10.7625L15.9933 10.7631L15.3377 10.1063ZM15.4727 9.77925H14.5446V9.77923L15.4727 9.77925ZM15.4728 4.36777H16.4009V4.36779L15.4728 4.36777ZM12.4949 1.09446V2.02256H11.2645L11.6025 0.839496L12.4949 1.09446ZM15.0112 11.6927C14.6695 11.6927 14.3644 11.598 14.1112 11.4623L14.9883 9.82642C15.0003 9.83285 15.0079 9.83531 15.0109 9.83613C15.0135 9.83683 15.0132 9.83647 15.0112 9.83647V11.6927ZM15.4778 10.6444V10.6463H13.6216V10.6444H15.4778ZM15.4778 10.6463C15.4778 11.1554 15.2781 11.6398 14.9167 12.0003L13.6059 10.686C13.6125 10.6794 13.6158 10.6737 13.6177 10.6691C13.6196 10.6644 13.6216 10.6573 13.6216 10.6463H15.4778ZM14.9175 11.9994C14.5574 12.3596 14.0738 12.5597 13.5645 12.5597V10.7035C13.5751 10.7035 13.5821 10.7016 13.5869 10.6996C13.5916 10.6976 13.5978 10.6941 13.605 10.6869L14.9175 11.9994ZM13.5645 12.5597C13.2183 12.5597 12.9093 12.4628 12.6532 12.3234L13.5409 10.6932C13.553 10.6998 13.5607 10.7023 13.5637 10.7031C13.5663 10.7038 13.5661 10.7035 13.5645 10.7035V12.5597ZM14.0236 11.5624C13.9969 12.0193 13.8116 12.4623 13.4711 12.8031L12.1579 11.4913C12.1614 11.4878 12.1633 11.4848 12.165 11.481C12.1669 11.4768 12.1697 11.4683 12.1706 11.4541L14.0236 11.5624ZM13.4708 12.8035C13.1105 13.1637 12.6269 13.3638 12.1175 13.3638V11.5076C12.1283 11.5076 12.1354 11.5056 12.1401 11.5037C12.1449 11.5017 12.151 11.4982 12.1583 11.4909L13.4708 12.8035ZM12.1175 13.3638C11.0929 13.3638 10.2707 12.5596 10.2115 11.5632L12.0645 11.4531C12.0654 11.4689 12.0719 11.4827 12.0833 11.4936C12.0889 11.4989 12.0945 11.5023 12.0994 11.5044C12.1037 11.5061 12.1092 11.5076 12.1175 11.5076V13.3638ZM11.5793 12.3246C11.2795 12.4866 10.9241 12.58 10.5444 12.5557L10.6634 10.7033C10.6634 10.7033 10.6654 10.7035 10.6703 10.7023C10.6755 10.7011 10.6846 10.6982 10.6967 10.6916L11.5793 12.3246ZM10.5431 12.5556C9.51264 12.488 8.75724 11.6116 8.75724 10.616H10.6134C10.6134 10.6474 10.6248 10.6715 10.6391 10.6873C10.653 10.7026 10.6625 10.7032 10.6646 10.7034L10.5431 12.5556ZM8.75724 10.616V6.18435H10.6134V10.616H8.75724ZM10.4891 6.64832L9.98451 7.52255L8.37691 6.59462L8.88154 5.72039L10.4891 6.64832ZM9.98535 7.52109C9.62673 8.14501 8.95919 8.52867 8.24136 8.52867V6.67248C8.29827 6.67248 8.3503 6.64093 8.37607 6.59609L9.98535 7.52109ZM8.24136 8.52867C7.89039 8.52867 7.54491 8.43664 7.23959 8.26169L8.16243 6.65116C8.18739 6.66546 8.21482 6.67248 8.24136 6.67248V8.52867ZM7.23553 8.25935C6.81884 8.01778 6.51555 7.62465 6.39045 7.15644L8.18373 6.67731C8.18289 6.67414 8.18057 6.66854 8.1761 6.66271C8.17167 6.65693 8.16756 6.65413 8.1665 6.65351L7.23553 8.25935ZM6.39073 7.15748C6.26514 6.68961 6.33089 6.19616 6.57314 5.77779L8.17947 6.70791C8.18079 6.70563 8.18311 6.70033 8.18411 6.69283C8.1851 6.68531 8.18427 6.67931 8.18345 6.67627L6.39073 7.15748ZM7.3763 5.31476C6.92104 5.43409 6.58028 5.76568 6.57773 5.76995C6.57688 5.77138 6.57562 5.77353 6.57522 5.77422C6.57499 5.77461 6.57459 5.77529 6.57446 5.77552C6.57438 5.77566 6.57421 5.77596 6.57416 5.77603C6.57403 5.77625 6.57407 5.77618 6.57442 5.77558C6.57506 5.77449 6.57611 5.77266 6.57765 5.77C6.5807 5.76473 6.58528 5.7568 6.59133 5.74633C6.60342 5.72542 6.62117 5.69468 6.64384 5.65544C6.68918 5.57696 6.75405 5.46463 6.83223 5.32926C6.98858 5.05853 7.19809 4.6957 7.41075 4.32739C7.83677 3.58953 8.27353 2.83288 8.323 2.74662L9.93318 3.67007C9.88193 3.75942 9.44289 4.52002 9.01823 5.25551C8.80555 5.62387 8.59601 5.98675 8.43962 6.25755C8.36143 6.39294 8.29652 6.50533 8.25114 6.58389C8.22846 6.62316 8.21063 6.65401 8.19846 6.67507C8.19239 6.68558 8.18768 6.69373 8.18446 6.69929C8.18287 6.70204 8.18156 6.70432 8.18059 6.70598C8.18015 6.70675 8.17959 6.70772 8.17905 6.70863C8.17886 6.70897 8.17826 6.71 8.17755 6.71122C8.17709 6.71199 8.17579 6.71421 8.17492 6.71568C8.17235 6.72 7.83157 7.05161 7.3763 7.17094V5.31476ZM8.28283 2.82508C8.29304 2.80255 8.32541 2.72991 8.35519 2.66296L10.0512 3.41721C10.0229 3.48081 9.98708 3.56133 9.97335 3.5916L8.28283 2.82508ZM8.35519 2.66295C8.36809 2.63395 8.38236 2.59689 8.40275 2.5394L10.1522 3.15966C10.127 3.23074 10.0937 3.32159 10.0512 3.41723L8.35519 2.66295ZM8.40266 2.53965C9.03125 0.765037 10.6134 -0.357227 12.4949 -0.357227V1.49896C11.4028 1.49896 10.5195 2.1229 10.1523 3.1594L8.40266 2.53965ZM12.4949 -0.357227C15.0075 -0.357227 16.9244 1.83371 16.9244 4.36764H15.0682C15.0682 2.71445 13.8436 1.49896 12.4949 1.49896V-0.357227ZM16.9244 4.36761L16.9245 9.7791L15.0683 9.77916L15.0682 4.36767L16.9244 4.36761ZM16.9245 9.77913C16.9245 10.2881 16.7248 10.7714 16.3652 11.1318L15.0514 9.82047C15.0588 9.81312 15.0623 9.80687 15.0643 9.80199C15.0664 9.79711 15.0683 9.78995 15.0683 9.77913H16.9245ZM16.3645 11.1324C16.0043 11.4927 15.5207 11.6927 15.0112 11.6927V9.83649C15.0221 9.83649 15.0292 9.83451 15.0339 9.83255C15.0387 9.83059 15.0448 9.8271 15.052 9.81986L16.3645 11.1324ZM14.5248 9.97416L14.5248 9.97414L15.4976 11.555L15.4976 11.555L14.5248 9.97416ZM12.4949 2.0225C11.6125 2.0225 10.9434 2.49454 10.6458 3.33454L8.89615 2.7147C9.45491 1.13745 10.8223 0.166316 12.4949 0.166316V2.0225ZM10.6451 3.33654C10.6158 3.41863 10.5777 3.52232 10.5296 3.63035L8.83388 2.87544C8.85237 2.83391 8.87138 2.7841 8.89686 2.7127L10.6451 3.33654ZM10.5294 3.63084C10.4869 3.72616 10.4513 3.80666 10.424 3.86119C10.4071 3.89503 10.3798 3.94719 10.3401 4.00496C10.2998 4.06349 10.2601 4.10764 10.2568 4.11134L8.85904 2.89003C8.86122 2.88754 8.8605 2.88835 8.8594 2.88963C8.85799 2.89127 8.85438 2.89548 8.84965 2.90125C8.84475 2.90722 8.83857 2.91494 8.83162 2.92412C8.82459 2.93338 8.81745 2.94323 8.81031 2.95362C8.79577 2.97478 8.78457 2.99331 8.77661 3.00733C8.76918 3.02041 8.76463 3.02946 8.76361 3.0315C8.76256 3.03361 8.76322 3.03237 8.76637 3.02562C8.76943 3.01908 8.77375 3.00965 8.77996 2.99594C8.78612 2.98234 8.79349 2.96592 8.80256 2.94563C8.81162 2.92537 8.82197 2.90216 8.8341 2.87495L10.5294 3.63084ZM8.95132 4.20309L8.94771 4.19997L10.1609 2.79517L10.1646 2.79828L8.95132 4.20309ZM10.3744 3.93217C10.2291 4.20625 9.81444 4.92398 8.6333 6.96904L7.02594 6.0407C8.22368 3.96691 8.60994 3.2976 8.73428 3.06297L10.3744 3.93217ZM8.63292 6.96971C8.70718 6.84138 8.72788 6.68654 8.68968 6.54282L6.89577 7.01958C6.80771 6.68826 6.85432 6.33728 7.02633 6.04003L8.63292 6.96971ZM8.6889 6.53992C8.65071 6.39807 8.55685 6.27401 8.42629 6.19865L7.49829 7.8062C7.20014 7.63408 6.98524 7.35194 6.89654 7.02248L8.6889 6.53992ZM8.42456 6.19765C8.31892 6.13696 8.21617 6.13737 8.14522 6.15647C8.07454 6.1755 7.98392 6.22704 7.92189 6.33513L9.53177 7.25909C9.12729 7.96384 8.20289 8.21093 7.50003 7.8072L8.42456 6.19765ZM7.92316 6.33291L8.91679 4.61261L10.5241 5.541L9.5305 7.2613L7.92316 6.33291ZM8.91736 4.61164C9.18543 4.14882 9.73259 3.91721 10.2575 4.05927L9.77252 5.85099C10.0671 5.93073 10.3742 5.7998 10.5236 5.54198L8.91736 4.61164ZM10.2552 4.05865C10.7758 4.19814 11.1371 4.66998 11.1371 5.208H9.2809C9.2809 5.50922 9.48308 5.77345 9.77482 5.8516L10.2552 4.05865ZM11.1371 5.208V10.6161H9.2809V5.208H11.1371ZM11.1371 10.6161C11.1371 10.5104 11.0979 10.4142 11.0336 10.3407C10.9694 10.2672 10.8561 10.1914 10.6991 10.181L10.5772 12.0332C9.79595 11.9818 9.2809 11.3012 9.2809 10.6161H11.1371ZM10.6872 10.1803C10.5775 10.1745 10.4436 10.2147 10.3418 10.3163L11.6532 11.63C11.3602 11.9225 10.9717 12.0541 10.5892 12.0339L10.6872 10.1803ZM10.3412 10.3169C10.2531 10.4049 10.2042 10.5256 10.2042 10.6466H12.0604C12.0604 11.0152 11.9157 11.3675 11.6537 11.6294L10.3412 10.3169ZM10.2042 10.6466V7.10963H12.0604V10.6466H10.2042ZM10.2042 7.10963C10.2042 6.45242 10.737 5.91964 11.3942 5.91964V7.77583C11.7621 7.77583 12.0604 7.47756 12.0604 7.10963H10.2042ZM11.3942 5.91964C12.051 5.91964 12.5842 6.45189 12.5842 7.10963H10.728C10.728 7.47777 11.0266 7.77583 11.3942 7.77583V5.91964ZM12.5842 7.10967L12.584 11.4506L10.7278 11.4505L10.728 7.1096L12.5842 7.10967ZM12.584 11.4506C12.584 11.1925 12.3756 10.9841 12.1175 10.9841V12.8403C11.3505 12.8403 10.7278 12.2177 10.7278 11.4506H12.584ZM12.1175 10.9841C11.9968 10.9841 11.8767 11.0328 11.7888 11.1205L13.1 12.4343C12.8379 12.6959 12.4856 12.8403 12.1175 12.8403V10.9841ZM11.7875 11.1218C11.6998 11.2097 11.6511 11.3298 11.6511 11.4506H13.5073C13.5073 11.8187 13.3628 12.171 13.1013 12.4331L11.7875 11.1218ZM11.6511 11.4506V7.10963H13.5073V11.4506H11.6511ZM11.6511 7.10963C11.6511 6.4528 12.1833 5.91964 12.8411 5.91964V7.77583C13.2092 7.77583 13.5073 7.47718 13.5073 7.10963H11.6511ZM12.8411 5.91964C13.4979 5.91964 14.0311 6.45188 14.0311 7.10963H12.1749C12.1749 7.47777 12.4735 7.77583 12.8411 7.77583V5.91964ZM14.0311 7.10967L14.0309 10.606L12.1747 10.6059L12.1749 7.10959L14.0311 7.10967ZM14.0309 10.6059V10.6466H12.1747V10.6059H14.0309ZM14.0309 10.6466C14.0309 10.3879 13.8221 10.18 13.5646 10.18V12.0362C12.7978 12.0362 12.1747 11.414 12.1747 10.6466H14.0309ZM13.5646 10.18C13.4413 10.18 13.3219 10.2301 13.2364 10.3153L14.5465 11.6303C14.2859 11.8899 13.9349 12.0362 13.5646 12.0362V10.18ZM13.2358 10.3159C13.147 10.4045 13.0982 10.5256 13.0982 10.6464H14.9544C14.9544 11.0149 14.8097 11.3675 14.5471 11.6297L13.2358 10.3159ZM13.0982 10.6464V7.10945H14.9544V10.6464H13.0982ZM13.0982 7.10945C13.0982 6.45261 13.6304 5.91946 14.2882 5.91946V7.77564C14.6563 7.77564 14.9544 7.47701 14.9544 7.10945H13.0982ZM14.2882 5.91946C14.945 5.91946 15.4781 6.45169 15.4781 7.10945H13.622C13.622 7.47759 13.9206 7.77564 14.2882 7.77564V5.91946ZM15.4781 7.10956L15.4778 9.77937L13.6216 9.77914L13.622 7.10933L15.4781 7.10956ZM15.4778 9.77925C15.4778 9.5218 15.2699 9.31297 15.0112 9.31297V11.1692C14.2438 11.1692 13.6216 10.5461 13.6216 9.77925H15.4778ZM15.0112 9.31297C14.8894 9.31297 14.7693 9.36226 14.6821 9.44938L15.9933 10.7631C15.7322 11.0238 15.3806 11.1692 15.0112 11.1692V9.31297ZM14.6814 9.45C14.5931 9.53837 14.5446 9.65899 14.5446 9.77925H16.4008C16.4008 10.1468 16.2568 10.4997 15.994 10.7625L14.6814 9.45ZM14.5446 9.77923L14.5447 4.36774L16.4009 4.36779L16.4008 9.77928L14.5446 9.77923ZM14.5447 4.36777C14.5447 2.99103 13.5437 2.02256 12.4949 2.02256V0.166369C14.7302 0.166369 16.4009 2.13505 16.4009 4.36777H14.5447ZM11.6025 0.839496L11.6025 0.839442L13.3873 1.34938L13.3873 1.34943L11.6025 0.839496Z" fill="#4CAF4F" mask="url(#path-1-inside-1_211_2339)"/>
<path d="M3.63098 12.5526L3.57922 12.5252C3.56695 12.5473 3.5325 12.6093 3.48157 12.701C3.49966 12.71 3.51798 12.7176 3.53625 12.7245C3.5674 12.6683 3.59863 12.6109 3.63098 12.5526Z" fill="#4CAF4F" stroke="#4CAF4F" stroke-width="0.928093"/>
<mask id="path-4-inside-2_211_2339" fill="white">
<path d="M22.8812 19.8226C22.3979 20.6286 21.6031 21.1803 20.6429 21.3764C19.6912 21.5704 18.6904 21.3915 17.8242 20.8721L13.1835 18.0882C12.9577 17.9527 12.7979 17.7376 12.734 17.482C12.6705 17.227 12.7102 16.9622 12.8455 16.7365C12.9299 16.5955 13.0483 16.4843 13.1856 16.4022L13.1843 16.4013C12.9585 16.2659 12.7988 16.0507 12.7351 15.7955C12.6712 15.5404 12.7109 15.2753 12.8463 15.0494C12.9336 14.9043 13.0531 14.7908 13.1896 14.7102C12.9915 14.574 12.8488 14.376 12.7901 14.1412C12.7261 13.8858 12.7658 13.621 12.9013 13.3953C13.0366 13.1695 13.2519 13.0099 13.5071 12.9462C13.5868 12.9262 13.6676 12.9163 13.7476 12.9163C13.9047 12.9165 14.0589 12.9563 14.2006 13.0305C14.2093 12.8469 14.2639 12.6667 14.3711 12.5121C14.6652 12.0878 15.2542 11.9704 15.7131 12.2457L19.5133 14.5252L19.0235 13.6429C18.8355 13.3061 18.8424 12.8905 19.0417 12.5583C19.1387 12.3966 19.2775 12.2623 19.4433 12.1693C19.5796 12.0939 19.7272 12.0581 19.8728 12.0581C20.1855 12.0583 20.4892 12.2233 20.6509 12.5153C21.2144 13.5306 22.2777 15.4454 22.3525 15.5791C22.3684 15.6022 22.4164 15.6711 22.4576 15.7296C22.4968 15.7852 22.5391 15.8383 22.5829 15.8911C23.5318 17.0414 23.6462 18.5476 22.8812 19.8226L22.8812 19.8226ZM22.1789 16.2249C22.1267 16.1618 22.0755 16.0973 22.029 16.0309C21.8873 15.8298 21.8837 15.8246 21.873 15.7719C21.7074 15.4979 21.3033 14.7705 20.1926 12.7694C20.0952 12.5938 19.8738 12.5296 19.6975 12.627C19.6107 12.6756 19.541 12.7433 19.4902 12.8281C19.3872 12.9998 19.3833 13.2143 19.4805 13.3885L20.4445 15.1253C20.502 15.229 20.4829 15.3582 20.3977 15.4405C20.3128 15.523 20.1829 15.5374 20.0809 15.4768L15.4436 12.6948C15.225 12.5637 14.9368 12.6151 14.8017 12.8102C14.724 12.9224 14.6992 13.0562 14.7317 13.1869C14.7615 13.3063 14.8365 13.407 14.9426 13.4706C14.9429 13.4708 14.9431 13.4711 14.9434 13.4713L17.9755 15.2903C18.0994 15.3647 18.1396 15.5254 18.0652 15.6496C17.9907 15.7734 17.8302 15.8139 17.7059 15.7393L13.9834 13.5062C13.8778 13.4429 13.7535 13.4242 13.6341 13.4542C13.5144 13.4841 13.4137 13.5589 13.3502 13.665C13.2866 13.7707 13.2682 13.8949 13.2977 14.0143C13.3276 14.1337 13.4025 14.2345 13.5085 14.2981L14.2328 14.7326L17.2308 16.5312C17.3547 16.6057 17.3949 16.7664 17.3205 16.8906C17.246 17.0144 17.0855 17.0547 16.9612 16.9803L13.9285 15.1608C13.7104 15.0296 13.4263 15.1007 13.2951 15.3192C13.2315 15.4251 13.2131 15.5493 13.2426 15.6686C13.2725 15.788 13.3474 15.8887 13.4535 15.9525L14.1971 16.3986L16.4862 17.772C16.6102 17.8465 16.6504 18.0072 16.5759 18.1313C16.5015 18.2551 16.3409 18.2958 16.2166 18.221L13.9275 16.8476C13.8219 16.7843 13.6981 16.7656 13.578 16.7956C13.4586 16.8254 13.3576 16.9002 13.2941 17.006C13.2307 17.1119 13.2121 17.2362 13.2417 17.3555C13.2715 17.4748 13.3465 17.5755 13.4526 17.6393L18.0933 20.4232C18.8463 20.8751 19.7148 21.0315 20.5377 20.8636C21.3521 20.6973 22.0248 20.232 22.4319 19.5534C23.0896 18.4576 22.995 17.2133 22.1791 16.2249L22.1789 16.2249Z"/>
</mask>
<path d="M22.8812 19.8226C22.3979 20.6286 21.6031 21.1803 20.6429 21.3764C19.6912 21.5704 18.6904 21.3915 17.8242 20.8721L13.1835 18.0882C12.9577 17.9527 12.7979 17.7376 12.734 17.482C12.6705 17.227 12.7102 16.9622 12.8455 16.7365C12.9299 16.5955 13.0483 16.4843 13.1856 16.4022L13.1843 16.4013C12.9585 16.2659 12.7988 16.0507 12.7351 15.7955C12.6712 15.5404 12.7109 15.2753 12.8463 15.0494C12.9336 14.9043 13.0531 14.7908 13.1896 14.7102C12.9915 14.574 12.8488 14.376 12.7901 14.1412C12.7261 13.8858 12.7658 13.621 12.9013 13.3953C13.0366 13.1695 13.2519 13.0099 13.5071 12.9462C13.5868 12.9262 13.6676 12.9163 13.7476 12.9163C13.9047 12.9165 14.0589 12.9563 14.2006 13.0305C14.2093 12.8469 14.2639 12.6667 14.3711 12.5121C14.6652 12.0878 15.2542 11.9704 15.7131 12.2457L19.5133 14.5252L19.0235 13.6429C18.8355 13.3061 18.8424 12.8905 19.0417 12.5583C19.1387 12.3966 19.2775 12.2623 19.4433 12.1693C19.5796 12.0939 19.7272 12.0581 19.8728 12.0581C20.1855 12.0583 20.4892 12.2233 20.6509 12.5153C21.2144 13.5306 22.2777 15.4454 22.3525 15.5791C22.3684 15.6022 22.4164 15.6711 22.4576 15.7296C22.4968 15.7852 22.5391 15.8383 22.5829 15.8911C23.5318 17.0414 23.6462 18.5476 22.8812 19.8226L22.8812 19.8226ZM22.1789 16.2249C22.1267 16.1618 22.0755 16.0973 22.029 16.0309C21.8873 15.8298 21.8837 15.8246 21.873 15.7719C21.7074 15.4979 21.3033 14.7705 20.1926 12.7694C20.0952 12.5938 19.8738 12.5296 19.6975 12.627C19.6107 12.6756 19.541 12.7433 19.4902 12.8281C19.3872 12.9998 19.3833 13.2143 19.4805 13.3885L20.4445 15.1253C20.502 15.229 20.4829 15.3582 20.3977 15.4405C20.3128 15.523 20.1829 15.5374 20.0809 15.4768L15.4436 12.6948C15.225 12.5637 14.9368 12.6151 14.8017 12.8102C14.724 12.9224 14.6992 13.0562 14.7317 13.1869C14.7615 13.3063 14.8365 13.407 14.9426 13.4706C14.9429 13.4708 14.9431 13.4711 14.9434 13.4713L17.9755 15.2903C18.0994 15.3647 18.1396 15.5254 18.0652 15.6496C17.9907 15.7734 17.8302 15.8139 17.7059 15.7393L13.9834 13.5062C13.8778 13.4429 13.7535 13.4242 13.6341 13.4542C13.5144 13.4841 13.4137 13.5589 13.3502 13.665C13.2866 13.7707 13.2682 13.8949 13.2977 14.0143C13.3276 14.1337 13.4025 14.2345 13.5085 14.2981L14.2328 14.7326L17.2308 16.5312C17.3547 16.6057 17.3949 16.7664 17.3205 16.8906C17.246 17.0144 17.0855 17.0547 16.9612 16.9803L13.9285 15.1608C13.7104 15.0296 13.4263 15.1007 13.2951 15.3192C13.2315 15.4251 13.2131 15.5493 13.2426 15.6686C13.2725 15.788 13.3474 15.8887 13.4535 15.9525L14.1971 16.3986L16.4862 17.772C16.6102 17.8465 16.6504 18.0072 16.5759 18.1313C16.5015 18.2551 16.3409 18.2958 16.2166 18.221L13.9275 16.8476C13.8219 16.7843 13.6981 16.7656 13.578 16.7956C13.4586 16.8254 13.3576 16.9002 13.2941 17.006C13.2307 17.1119 13.2121 17.2362 13.2417 17.3555C13.2715 17.4748 13.3465 17.5755 13.4526 17.6393L18.0933 20.4232C18.8463 20.8751 19.7148 21.0315 20.5377 20.8636C21.3521 20.6973 22.0248 20.232 22.4319 19.5534C23.0896 18.4576 22.995 17.2133 22.1791 16.2249L22.1789 16.2249Z" fill="#4CAF4F"/>
<path d="M22.8812 19.8226L22.5817 18.9441L24.9804 18.1264L23.6772 20.2998L22.8812 19.8226ZM20.6429 21.3764L20.8286 22.2857L20.8283 22.2858L20.6429 21.3764ZM17.8242 20.8721L17.3469 21.6681L17.3467 21.668L17.8242 20.8721ZM13.1835 18.0882L13.6609 17.2923L13.6609 17.2923L13.1835 18.0882ZM12.734 17.482L11.8337 17.7074L11.8334 17.7062L12.734 17.482ZM12.8455 16.7365L13.6417 17.2133L13.6415 17.2138L12.8455 16.7365ZM13.1856 16.4022L13.6775 15.6151L14.9641 16.4193L13.6623 17.1985L13.1856 16.4022ZM13.1843 16.4013L13.6617 15.6055L13.669 15.6098L13.6762 15.6143L13.1843 16.4013ZM12.7351 15.7955L13.6354 15.5699L13.6357 15.571L12.7351 15.7955ZM12.8463 15.0494L12.0503 14.5722L12.0509 14.5712L12.8463 15.0494ZM13.1896 14.7102L13.7156 13.9456L14.9142 14.7702L13.6612 15.5095L13.1896 14.7102ZM12.7901 14.1412L13.6904 13.9157L13.6905 13.9161L12.7901 14.1412ZM12.9013 13.3953L13.6974 13.8723L13.697 13.873L12.9013 13.3953ZM13.5071 12.9462L13.733 13.8463L13.7321 13.8466L13.5071 12.9462ZM13.7476 12.9163V11.9882L13.7486 11.9882L13.7476 12.9163ZM14.2006 13.0305L15.1276 13.0744L15.0588 14.5269L13.7703 13.8528L14.2006 13.0305ZM14.3711 12.5121L15.1339 13.0408L15.1338 13.0409L14.3711 12.5121ZM15.7131 12.2457L15.2357 13.0416L15.2356 13.0416L15.7131 12.2457ZM19.5133 14.5252L20.3247 14.0747L22.0058 17.1025L19.0359 15.3211L19.5133 14.5252ZM19.0235 13.6429L19.8339 13.1907L19.8349 13.1924L19.0235 13.6429ZM19.0417 12.5583L18.2457 12.081L18.246 12.0806L19.0417 12.5583ZM19.4433 12.1693L18.9893 11.3598L18.9938 11.3573L19.4433 12.1693ZM19.8728 12.0581V11.13L19.8732 11.13L19.8728 12.0581ZM20.6509 12.5153L19.8394 12.9657L19.8389 12.9648L20.6509 12.5153ZM22.3525 15.5791L21.5878 16.1051L21.5635 16.0697L21.5425 16.0321L22.3525 15.5791ZM22.4576 15.7296L21.6991 16.2644L21.6984 16.2634L22.4576 15.7296ZM22.5829 15.8911L23.2973 15.2988L23.2988 15.3005L22.5829 15.8911ZM22.8812 19.8226L23.1807 20.701L20.7808 21.5192L22.0854 19.345L22.8812 19.8226ZM22.1789 16.2249L22.2708 17.1484L21.7784 17.1974L21.4633 16.8159L22.1789 16.2249ZM22.029 16.0309L22.7876 15.4963L22.7888 15.498L22.029 16.0309ZM21.873 15.7719L22.6673 15.2919L22.7507 15.4298L22.7826 15.5878L21.873 15.7719ZM20.1926 12.7694L19.3811 13.2198L19.381 13.2195L20.1926 12.7694ZM19.6975 12.627L19.2443 11.8171L19.2486 11.8147L19.6975 12.627ZM19.4902 12.8281L20.2862 13.3054L20.2861 13.3055L19.4902 12.8281ZM19.4805 13.3885L20.2909 12.936L20.292 12.9381L19.4805 13.3885ZM20.4445 15.1253L19.6331 15.5759L19.633 15.5757L20.4445 15.1253ZM20.3977 15.4405L19.7512 14.7747L19.7525 14.7734L20.3977 15.4405ZM20.0809 15.4768L19.6064 16.2744L19.6035 16.2726L20.0809 15.4768ZM15.4436 12.6948L15.9207 11.8987L15.921 11.8989L15.4436 12.6948ZM14.8017 12.8102L15.5647 13.3386L15.5645 13.3389L14.8017 12.8102ZM14.7317 13.1869L13.8313 13.412L13.831 13.4107L14.7317 13.1869ZM14.9426 13.4706L14.5274 14.3007L14.4957 14.2848L14.4653 14.2666L14.9426 13.4706ZM14.9434 13.4713L15.3585 12.6412L15.3903 12.6571L15.4208 12.6754L14.9434 13.4713ZM17.9755 15.2903L18.4529 14.4944L18.4533 14.4946L17.9755 15.2903ZM18.0652 15.6496L18.8611 16.1269L18.8605 16.1279L18.0652 15.6496ZM17.7059 15.7393L18.1833 14.9434L18.1835 14.9436L17.7059 15.7393ZM13.9834 13.5062L14.4605 12.7102L14.4608 12.7103L13.9834 13.5062ZM13.6341 13.4542L13.8603 14.3543L13.8586 14.3548L13.6341 13.4542ZM13.3502 13.665L14.1467 14.1414L14.1455 14.1434L13.3502 13.665ZM13.2977 14.0143L12.3974 14.2394L12.3968 14.237L13.2977 14.0143ZM13.5085 14.2981L13.0311 15.0941L13.0306 15.0937L13.5085 14.2981ZM14.2328 14.7326L14.7102 13.9366L14.7103 13.9367L14.2328 14.7326ZM17.2308 16.5312L17.7083 15.7354L17.7086 15.7356L17.2308 16.5312ZM17.3205 16.8906L18.1164 17.3679L18.1158 17.3688L17.3205 16.8906ZM16.9612 16.9803L16.4843 17.7764L16.4837 17.7761L16.9612 16.9803ZM13.9285 15.1608L13.451 15.9566L13.4501 15.9561L13.9285 15.1608ZM13.2951 15.3192L14.0907 15.797L14.0907 15.797L13.2951 15.3192ZM13.2426 15.6686L12.3423 15.8937L12.3417 15.8914L13.2426 15.6686ZM13.4535 15.9525L12.9761 16.7484L12.9753 16.7479L13.4535 15.9525ZM14.1971 16.3986L14.6745 15.6027L14.6746 15.6027L14.1971 16.3986ZM16.4862 17.772L16.9637 16.9762L16.964 16.9764L16.4862 17.772ZM16.5759 18.1313L17.3719 18.6087L17.3713 18.6096L16.5759 18.1313ZM16.2166 18.221L16.6941 17.4252L16.6951 17.4258L16.2166 18.221ZM13.9275 16.8476L14.4046 16.0515L14.405 16.0517L13.9275 16.8476ZM13.578 16.7956L13.3529 15.8952L13.3529 15.8952L13.578 16.7956ZM13.2941 17.006L12.498 16.529L12.4983 16.5285L13.2941 17.006ZM13.2417 17.3555L12.3413 17.5806L12.3408 17.5785L13.2417 17.3555ZM13.4526 17.6393L12.9751 18.4352L12.9743 18.4347L13.4526 17.6393ZM18.0933 20.4232L18.5707 19.6274L18.5707 19.6274L18.0933 20.4232ZM20.5377 20.8636L20.7234 21.7729L20.7233 21.7729L20.5377 20.8636ZM22.4319 19.5534L21.6359 19.076L21.6361 19.0758L22.4319 19.5534ZM22.1791 16.2249L22.0872 15.3013L22.5798 15.2523L22.8949 15.6341L22.1791 16.2249ZM23.6772 20.2998C23.0537 21.3397 22.0314 22.04 20.8286 22.2857L20.4571 20.4671C21.1748 20.3205 21.7422 19.9174 22.0852 19.3453L23.6772 20.2998ZM20.8283 22.2858C19.6397 22.5281 18.4035 22.3016 17.3469 21.6681L18.3014 20.0761C18.9773 20.4814 19.7428 20.6127 20.4575 20.467L20.8283 22.2858ZM17.3467 21.668L12.706 18.8841L13.6609 17.2923L18.3016 20.0762L17.3467 21.668ZM12.7061 18.8841C12.2696 18.6223 11.9575 18.2021 11.8337 17.7074L13.6343 17.2567C13.6368 17.2668 13.6403 17.273 13.6434 17.2772C13.6466 17.2814 13.6517 17.2868 13.6609 17.2923L12.7061 18.8841ZM11.8334 17.7062C11.7104 17.2122 11.7882 16.6952 12.0495 16.2593L13.6415 17.2138C13.6359 17.223 13.6339 17.2303 13.6331 17.2356C13.6323 17.241 13.6322 17.2481 13.6346 17.2579L11.8334 17.7062ZM12.0492 16.2597C12.2213 15.9723 12.4565 15.7569 12.709 15.6058L13.6623 17.1985C13.651 17.2053 13.645 17.2105 13.6425 17.2129C13.6404 17.215 13.6407 17.2151 13.6417 17.2133L12.0492 16.2597ZM12.6937 17.1892L12.6924 17.1884L13.6762 15.6143L13.6775 15.6151L12.6937 17.1892ZM12.7069 17.1972C12.2706 16.9355 11.9581 16.5153 11.8346 16.02L13.6357 15.571C13.638 15.5805 13.6413 15.5864 13.6443 15.5904C13.6474 15.5945 13.6525 15.5999 13.6617 15.6055L12.7069 17.1972ZM11.8349 16.0212C11.7108 15.526 11.7889 15.0083 12.0503 14.5722L13.6423 15.5266C13.6367 15.5361 13.6346 15.5433 13.6339 15.5485C13.6331 15.5536 13.633 15.5604 13.6354 15.5699L11.8349 16.0212ZM12.0509 14.5712C12.2222 14.2862 12.4563 14.0653 12.7179 13.911L13.6612 15.5095C13.6552 15.5131 13.6511 15.5165 13.6484 15.5191C13.6459 15.5216 13.6438 15.5242 13.6418 15.5275L12.0509 14.5712ZM12.6636 15.4749C12.2887 15.217 12.006 14.8316 11.8897 14.3663L13.6905 13.9161C13.6916 13.9205 13.693 13.9236 13.6954 13.927C13.698 13.9307 13.7038 13.9375 13.7156 13.9456L12.6636 15.4749ZM11.8898 14.3667C11.7658 13.8716 11.8437 13.3539 12.1055 12.9177L13.697 13.873C13.6915 13.8822 13.6895 13.8892 13.6888 13.8941C13.6881 13.8991 13.6879 13.906 13.6904 13.9157L11.8898 14.3667ZM12.1051 12.9183C12.3671 12.4811 12.7879 12.1693 13.282 12.0458L13.7321 13.8466C13.7222 13.849 13.716 13.8525 13.7119 13.8555C13.7078 13.8586 13.7027 13.8635 13.6974 13.8723L12.1051 12.9183ZM13.2811 12.046C13.4348 12.0074 13.5916 11.9882 13.7476 11.9882V13.8444C13.7436 13.8444 13.7387 13.8449 13.733 13.8463L13.2811 12.046ZM13.7486 11.9882C14.0639 11.9886 14.3645 12.0688 14.6308 12.2081L13.7703 13.8528C13.7615 13.8482 13.7552 13.8461 13.7517 13.8453C13.7483 13.8444 13.7468 13.8444 13.7467 13.8444L13.7486 11.9882ZM13.2735 12.9865C13.2895 12.649 13.3913 12.2964 13.6085 11.9832L15.1338 13.0409C15.1365 13.0371 15.129 13.0449 15.1276 13.0744L13.2735 12.9865ZM13.6083 11.9834C14.1962 11.1352 15.3359 10.9371 16.1906 11.4499L15.2356 13.0416C15.2085 13.0253 15.182 13.0227 15.1612 13.0269C15.1409 13.0309 15.1353 13.0388 15.1339 13.0408L13.6083 11.9834ZM16.1905 11.4498L19.9907 13.7293L19.0359 15.3211L15.2357 13.0416L16.1905 11.4498ZM18.7019 14.9757L18.212 14.0934L19.8349 13.1924L20.3247 14.0747L18.7019 14.9757ZM18.213 14.0951C17.8624 13.4668 17.8764 12.6968 18.2457 12.081L19.8376 13.0356C19.8084 13.0843 19.8086 13.1454 19.8339 13.1907L18.213 14.0951ZM18.246 12.0806C18.427 11.7791 18.6841 11.531 18.9893 11.3598L19.8973 12.9788C19.8709 12.9936 19.8505 13.0141 19.8374 13.036L18.246 12.0806ZM18.9938 11.3573C19.2715 11.2036 19.5744 11.13 19.8728 11.13V12.9862C19.876 12.9862 19.8796 12.9858 19.8835 12.9848C19.8876 12.9838 19.8908 12.9824 19.8928 12.9813L18.9938 11.3573ZM19.8732 11.13C20.5075 11.1304 21.1303 11.465 21.4629 12.0659L19.8389 12.9648C19.8404 12.9674 19.8428 12.9709 19.8462 12.9744C19.8495 12.9776 19.8528 12.9801 19.8558 12.9818C19.861 12.9848 19.8663 12.9862 19.8723 12.9862L19.8732 11.13ZM21.4624 12.065C22.0265 13.0815 23.0887 14.9941 23.1625 15.126L21.5425 16.0321C21.4667 15.8967 20.4022 13.9798 19.8394 12.9657L21.4624 12.065ZM23.1171 15.053C23.1302 15.0721 23.176 15.1378 23.2168 15.1958L21.6984 16.2634C21.6568 16.2043 21.6065 16.1323 21.5878 16.1051L23.1171 15.053ZM23.2161 15.1948C23.2353 15.2221 23.2604 15.2542 23.2973 15.2988L21.8684 16.4835C21.8178 16.4225 21.7583 16.3484 21.6991 16.2644L23.2161 15.1948ZM23.2988 15.3005C24.4967 16.7527 24.6451 18.6867 23.677 20.3001L22.0854 19.345C22.6473 18.4086 22.5668 17.3301 21.867 16.4818L23.2988 15.3005ZM22.5817 18.9441L22.5817 18.9441L23.1807 20.701L23.1807 20.701L22.5817 18.9441ZM21.4633 16.8159C21.4046 16.7449 21.3359 16.6591 21.2691 16.5638L22.7888 15.498C22.8151 15.5355 22.8488 15.5786 22.8944 15.6339L21.4633 16.8159ZM21.2703 16.5655C21.2119 16.4826 21.1491 16.3946 21.1074 16.3256C21.0795 16.2794 21.0422 16.212 21.0107 16.1262C20.98 16.0426 20.9664 15.9709 20.9634 15.9561L22.7826 15.5878C22.785 15.5993 22.7758 15.5481 22.7532 15.4865C22.7298 15.4227 22.7042 15.3791 22.6963 15.3659C22.6925 15.3597 22.6911 15.3577 22.694 15.3621C22.6968 15.3663 22.7017 15.3736 22.71 15.3857C22.7274 15.4108 22.7512 15.4445 22.7876 15.4963L21.2703 16.5655ZM21.0787 16.252C20.9014 15.9587 20.4841 15.2069 19.3811 13.2198L21.0041 12.319C22.1225 14.334 22.5133 15.0372 22.6673 15.2919L21.0787 16.252ZM19.381 13.2195C19.5312 13.4905 19.8734 13.5902 20.1464 13.4394L19.2486 11.8147C19.8742 11.469 20.6591 11.697 21.0042 12.3192L19.381 13.2195ZM20.1507 13.437C20.2052 13.4065 20.2537 13.3595 20.2862 13.3054L18.6942 12.3509C18.8284 12.1271 19.0163 11.9447 19.2443 11.8171L20.1507 13.437ZM20.2861 13.3055C20.3526 13.1947 20.3571 13.0546 20.2909 12.936L18.6702 13.8409C18.4095 13.374 18.4219 12.8049 18.6943 12.3507L20.2861 13.3055ZM20.292 12.9381L21.256 14.6749L19.633 15.5757L18.669 13.8389L20.292 12.9381ZM21.2558 14.6747C21.5171 15.1452 21.4304 15.7329 21.043 16.1076L19.7525 14.7734C19.5354 14.9834 19.4869 15.3127 19.6331 15.5759L21.2558 14.6747ZM21.0443 16.1063C20.6538 16.4855 20.0635 16.5463 19.6064 16.2744L20.5554 14.6791C20.3024 14.5286 19.9718 14.5605 19.7512 14.7747L21.0443 16.1063ZM19.6035 16.2726L14.9661 13.4906L15.921 11.8989L20.5584 14.6809L19.6035 16.2726ZM14.9664 13.4908C15.057 13.5451 15.1592 13.5609 15.2552 13.5437C15.3511 13.5265 15.4749 13.4683 15.5647 13.3386L14.0387 12.2818C14.4854 11.6367 15.3348 11.5475 15.9207 11.8987L14.9664 13.4908ZM15.5645 13.3389C15.637 13.2343 15.665 13.0945 15.6324 12.9632L13.831 13.4107C13.7334 13.018 13.811 12.6105 14.0389 12.2816L15.5645 13.3389ZM15.6321 12.9618C15.6017 12.8403 15.5231 12.7366 15.4199 12.6747L14.4653 14.2666C14.1498 14.0774 13.9214 13.7723 13.8313 13.412L15.6321 12.9618ZM15.3577 12.6406C15.4416 12.6825 15.5032 12.7292 15.5423 12.7623C15.5615 12.7785 15.5763 12.7924 15.5853 12.801C15.5899 12.8054 15.5935 12.809 15.5957 12.8112C15.5969 12.8123 15.5978 12.8132 15.5983 12.8138C15.5986 12.8141 15.5988 12.8143 15.599 12.8144C15.5991 12.8145 15.5991 12.8146 15.5992 12.8146C15.5992 12.8146 15.5992 12.8146 15.5992 12.8146C15.5992 12.8146 15.5992 12.8146 15.5992 12.8146C15.5992 12.8146 15.5992 12.8147 15.5992 12.8147C15.5995 12.815 15.5978 12.8133 15.5958 12.8113C15.5937 12.8091 15.59 12.8056 15.5855 12.8012C15.5766 12.7927 15.5618 12.7788 15.5427 12.7626C15.5038 12.7297 15.4422 12.6831 15.3585 12.6412L14.5283 14.3013C14.4444 14.2594 14.3827 14.2127 14.3437 14.1796C14.3245 14.1634 14.3096 14.1495 14.3007 14.1409C14.2961 14.1365 14.2924 14.1329 14.2902 14.1307C14.2891 14.1296 14.2882 14.1287 14.2876 14.1281C14.2874 14.1278 14.2871 14.1276 14.287 14.1275C14.2869 14.1274 14.2869 14.1273 14.2868 14.1273C14.2868 14.1273 14.2868 14.1273 14.2868 14.1273C14.2868 14.1273 14.2868 14.1272 14.2868 14.1272C14.2868 14.1272 14.2868 14.1272 14.2868 14.1272C14.2865 14.1269 14.2882 14.1286 14.2901 14.1306C14.2923 14.1328 14.2959 14.1363 14.3005 14.1407C14.3094 14.1492 14.3242 14.1631 14.3433 14.1793C14.3822 14.2122 14.4438 14.2588 14.5274 14.3007L15.3577 12.6406ZM15.4208 12.6754L18.4529 14.4944L17.498 16.0861L14.4659 14.2671L15.4208 12.6754ZM18.4533 14.4946C19.0167 14.833 19.199 15.5636 18.8611 16.1269L17.2693 15.1722C17.0803 15.4873 17.1822 15.8965 17.4977 16.0859L18.4533 14.4946ZM18.8605 16.1279C18.523 16.6891 17.7933 16.8742 17.2282 16.535L18.1835 14.9436C17.867 14.7536 17.4584 14.8576 17.2698 15.1713L18.8605 16.1279ZM17.2284 16.5352L13.506 14.3021L14.4608 12.7103L18.1833 14.9434L17.2284 16.5352ZM13.5063 14.3023C13.6105 14.3648 13.7391 14.3848 13.8603 14.3543L13.4078 12.5541C13.7679 12.4636 14.1451 12.5211 14.4605 12.7102L13.5063 14.3023ZM13.8586 14.3548C13.9791 14.3247 14.0839 14.2464 14.1467 14.1414L12.5537 13.1885C12.7435 12.8713 13.0496 12.6434 13.4096 12.5537L13.8586 14.3548ZM14.1455 14.1434C14.2092 14.0374 14.2278 13.9092 14.1987 13.7915L12.3968 14.237C12.3086 13.8805 12.3639 13.5041 12.5549 13.1866L14.1455 14.1434ZM14.1981 13.7892C14.1679 13.6683 14.0898 13.5647 13.9863 13.5025L13.0306 15.0937C12.7152 14.9043 12.4873 14.599 12.3974 14.2394L14.1981 13.7892ZM13.9858 13.5022L14.7102 13.9366L13.7555 15.5285L13.0311 15.0941L13.9858 13.5022ZM14.7103 13.9367L17.7083 15.7354L16.7533 17.3271L13.7553 15.5284L14.7103 13.9367ZM17.7086 15.7356C18.272 16.0739 18.4543 16.8045 18.1164 17.3679L16.5246 16.4132C16.3356 16.7283 16.4375 17.1375 16.753 17.3269L17.7086 15.7356ZM18.1158 17.3688C17.7778 17.931 17.0481 18.1142 16.4843 17.7764L17.4381 16.1841C17.1228 15.9952 16.7142 16.0977 16.5251 16.4123L18.1158 17.3688ZM16.4837 17.7761L13.451 15.9566L14.4059 14.3649L17.4386 16.1844L16.4837 17.7761ZM13.4501 15.9561C13.673 16.0901 13.9588 16.0167 14.0907 15.797L12.4995 14.8413C12.8938 14.1848 13.7478 13.969 14.4068 14.3654L13.4501 15.9561ZM14.0907 15.797C14.154 15.6917 14.1728 15.5638 14.1436 15.4459L12.3417 15.8914C12.2535 15.5347 12.309 15.1585 12.4995 14.8413L14.0907 15.797ZM14.143 15.4435C14.1126 15.3219 14.0341 15.2186 13.9318 15.1571L12.9753 16.7479C12.6608 16.5588 12.4324 16.2542 12.3423 15.8937L14.143 15.4435ZM13.931 15.1566L14.6745 15.6027L13.7196 17.1944L12.9761 16.7484L13.931 15.1566ZM14.6746 15.6027L16.9637 16.9762L16.0088 18.5678L13.7196 17.1944L14.6746 15.6027ZM16.964 16.9764C17.5274 17.3147 17.7097 18.0453 17.3719 18.6087L15.78 17.654C15.591 17.969 15.693 18.3782 16.0084 18.5677L16.964 16.9764ZM17.3713 18.6096C17.0343 19.17 16.3045 19.357 15.7382 19.0163L16.6951 17.4258C16.3774 17.2346 15.9687 17.3403 15.7806 17.653L17.3713 18.6096ZM15.7391 19.0169L13.45 17.6434L14.405 16.0517L16.6941 17.4252L15.7391 19.0169ZM13.4503 17.6436C13.5549 17.7063 13.6835 17.7259 13.8031 17.696L13.3529 15.8952C13.7126 15.8053 14.0889 15.8623 14.4046 16.0515L13.4503 17.6436ZM13.8031 17.696C13.9225 17.6661 14.0268 17.5888 14.09 17.4835L12.4983 16.5285C12.6884 16.2117 12.9947 15.9848 13.3529 15.8952L13.8031 17.696ZM14.0903 17.4829C14.1527 17.3788 14.172 17.2515 14.1426 17.1324L12.3408 17.5785C12.2522 17.2209 12.3087 16.845 12.498 16.529L14.0903 17.4829ZM14.142 17.1304C14.1116 17.0087 14.0331 16.9055 13.9308 16.8439L12.9743 18.4347C12.6598 18.2456 12.4314 17.941 12.3413 17.5805L14.142 17.1304ZM13.93 16.8435L18.5707 19.6274L17.6158 21.2191L12.9751 18.4352L13.93 16.8435ZM18.5707 19.6274C19.1347 19.9658 19.7678 20.0734 20.3522 19.9542L20.7233 21.7729C19.6618 21.9895 18.5579 21.7843 17.6158 21.2191L18.5707 19.6274ZM20.3521 19.9542C20.926 19.837 21.3702 19.519 21.6359 19.076L23.2278 20.0308C22.6794 20.945 21.7782 21.5575 20.7234 21.7729L20.3521 19.9542ZM21.6361 19.0758C22.0907 18.3185 22.03 17.5021 21.4634 16.8157L22.8949 15.6341C23.96 16.9244 24.0886 18.5967 23.2276 20.0311L21.6361 19.0758ZM22.2711 17.1484L22.2708 17.1484L22.0869 15.3014L22.0872 15.3013L22.2711 17.1484Z" fill="#4CAF4F" mask="url(#path-4-inside-2_211_2339)"/>
</svg>
