<svg width="34" height="34" viewBox="0 0 34 34" fill="none" xmlns="http://www.w3.org/2000/svg">
<path d="M7.0907 5.71716H26.9286C28.0823 5.71716 29.1889 6.17588 30.0048 6.99158C30.8206 7.80739 31.2791 8.91402 31.2792 10.0677V23.641C31.2792 24.7948 30.8206 25.9013 30.0048 26.7172C29.1889 27.533 28.0824 27.9916 26.9286 27.9916H7.0907C5.93697 27.9915 4.83034 27.533 4.01453 26.7172C3.19884 25.9013 2.74011 24.7947 2.74011 23.641V10.0677C2.74017 8.91402 3.19872 7.80739 4.01453 6.99158C4.83034 6.17577 5.93697 5.71722 7.0907 5.71716ZM4.13269 23.641C4.13269 24.4254 4.44429 25.178 4.9989 25.7328C5.55364 26.2875 6.30619 26.5999 7.0907 26.6H26.9286C27.7132 26.6 28.4656 26.2876 29.0204 25.7328C29.5752 25.178 29.8876 24.4256 29.8876 23.641V13.3744H4.13269V23.641ZM22.2303 20.3353H25.3632C25.5476 20.3354 25.7249 20.408 25.8553 20.5385C25.9858 20.6689 26.0584 20.8462 26.0585 21.0306C26.0585 21.2151 25.9856 21.3923 25.8553 21.5228C25.7249 21.6533 25.5476 21.7268 25.3632 21.7269H22.2303C22.0458 21.7269 21.8687 21.6533 21.7382 21.5228C21.6078 21.3923 21.5341 21.2151 21.5341 21.0306C21.5342 20.8462 21.6077 20.6689 21.7382 20.5385C21.8687 20.408 22.0458 20.3354 22.2303 20.3353ZM7.0907 7.10974C6.30619 7.1098 5.55364 7.42122 4.9989 7.97595C4.44417 8.53069 4.13275 9.28324 4.13269 10.0677V11.9818H29.8876V10.0677C29.8875 9.28324 29.5751 8.53069 29.0204 7.97595C28.4656 7.42133 27.713 7.10974 26.9286 7.10974H7.0907Z" fill="#4CAF4F" stroke="#4CAF4F" stroke-width="0.696069"/>
</svg>
